<svg xmlns="http://www.w3.org/2000/svg" viewBox="0 0 100 100"><title>github 100x100</title><path d="M50 2.92A48.29 48.29 0 0 0 34.7 97c2.4.4 3.3-1 3.3-2.3s0-5-.1-9C24.5 88.62 21.6 80 21.6 80c-2.2-5.6-5.4-7.1-5.4-7.1-4.4-3 .3-2.9.3-2.9 4.9.3 7.4 5 7.4 5 4.3 7.4 11.3 5.2 14.1 4a10.47 10.47 0 0 1 3.1-6.5c-10.7-1.2-22-5.4-22-23.9a18.74 18.74 0 0 1 5-13c-.5-1.2-2.2-6.1.5-12.8 0 0 4.1-1.3 13.3 5A44.68 44.68 0 0 1 50 26.22a49 49 0 0 1 12.1 1.6c9.2-6.3 13.3-5 13.3-5 2.6 6.7 1 11.6.5 12.8a18.74 18.74 0 0 1 5 13c0 18.6-11.3 22.6-22.1 23.8 1.7 1.5 3.3 4.4 3.3 8.9 0 6.5-.1 11.7-.1 13.3 0 1.3.9 2.8 3.3 2.3a48.23 48.23 0 0 0-15.3-94z"/></svg>